# xmcd CD database file
#
# Track frame offsets:
#	150
#	10655
#	26859
#	39184
#	52342
#	68448
#	79333
#	93622
#	107672
#	119794
#	141950
#	155959
#	170226
#	184514
#
# Disc length: 2599 seconds
#
# Revision: 0
# Processed by: cddbd v1.5.2PL0 Copyright (c) Steve Scherf et al.
# Submitted via: CDex 1.79
#
DISCID=c80a250e
DTITLE=Paul Craft - Too Bad You`re No Good
DYEAR=2007
DGENRE=Country
TTITLE0=I`m Movin` (featuring Shawn Camp)
TTITLE1=They Just Don`t Make The Blues They Used To
TTITLE2=Do Us Both A Favor
TTITLE3=Louise
TTITLE4=Drop Kick Me, Jesus (featuring Bobby Bare)
TTITLE5=Fastest Grass Alive
TTITLE6=Is This You Leavin` (featuring Karen Staley)
TTITLE7=I`ve Fallen (And I Can`t Get Up)
TTITLE8=I Don`t Care Where You Go (But You Can`t Stay Here) (featuring Shawn Camp)
TTITLE9=It Wasn`t Easy Being Me
TTITLE10=Lovin` You Has Not Been Easy
TTITLE11=Too Bad You`re No Good
TTITLE12=Is This You Leavin` (featuring Susan Taylor)
TTITLE13=I`m Movin` 
EXTD=YEAR: 2007
EXTT0=
EXTT1=
EXTT2=
EXTT3=
EXTT4=
EXTT5=
EXTT6=
EXTT7=
EXTT8=
EXTT9=
EXTT10=
EXTT11=
EXTT12=
EXTT13=
PLAYORDER=
